<svg width="44" height="45" viewBox="0 0 44 45" fill="none" xmlns="http://www.w3.org/2000/svg">
<path d="M22.0439 2.27483C22.0265 1.85767 22.0119 1.43276 22 1C22.018 1.43267 22.0326 1.85758 22.0439 2.27483C22.6799 17.5643 27.0434 22.4519 41.1856 22.5273C41.9305 22.5065 42.7017 22.4977 43.5 22.5C42.7009 22.5219 41.9297 22.5312 41.1856 22.5273C27.0035 22.9222 22.3696 27.6349 22.4552 41.8714C22.4785 42.5588 22.4933 43.2681 22.5 44C22.4744 43.2679 22.4593 42.5585 22.4552 41.8714C21.9802 27.9061 17.9317 23.0146 4.69966 22.9177C3.53761 22.9757 2.30552 23.0022 1 23C2.30647 22.9376 3.53843 22.9091 4.69966 22.9177C18.5412 22.2259 22.4415 17.0458 22.0439 2.27483Z" fill="white"/>
<path d="M22 1C22.472 18.1285 27.0985 22.9487 43.5 22.5C26.7697 22.4513 21.9167 27.3032 22.5 44C22.3445 27.0944 17.9264 22.191 1 23C18.2954 23.0288 22.7073 18.0355 22 1Z" stroke="white"/>
</svg>
