<svg width="47" height="47" viewBox="0 0 47 47" fill="none" xmlns="http://www.w3.org/2000/svg">
<path d="M42.9766 5.41475C42.5546 5.06436 42.0454 4.8349 41.5034 4.75076C40.9613 4.66662 40.4066 4.73095 39.8981 4.93691L4.81067 19.1015C4.24367 19.3345 3.76095 19.7345 3.42659 20.2483C3.09222 20.762 2.92203 21.3654 2.9386 21.9782C2.95518 22.5909 3.15773 23.1842 3.51938 23.6791C3.88102 24.1741 4.38466 24.5474 4.96342 24.7494L12.5343 27.3775L16.637 40.9409C16.6449 40.9683 16.6703 40.9859 16.6821 41.0114C16.7249 41.1193 16.7866 41.2188 16.8642 41.3051C16.9836 41.4369 17.1366 41.5337 17.3068 41.5852C17.3264 41.593 17.3401 41.6106 17.3597 41.6145H17.3714L17.3773 41.6165C17.5288 41.6489 17.6862 41.6408 17.8336 41.593L17.8825 41.5832C18.0239 41.5332 18.1518 41.4515 18.2566 41.3443C18.2683 41.3306 18.2879 41.3286 18.2997 41.3169L24.2001 34.8035L32.8109 41.4716C33.3338 41.8809 33.9781 42.1022 34.642 42.1022C36.0794 42.1022 37.319 41.0956 37.6147 39.6915L44.0028 8.32287C44.1118 7.79035 44.0739 7.2382 43.8931 6.72557C43.7124 6.21295 43.3955 5.75915 42.9766 5.41279M18.7775 29.9527L17.393 36.6835L14.5044 27.1307L28.8296 19.6695L19.0438 29.4572C18.9085 29.5928 18.8159 29.765 18.7775 29.9527ZM35.6955 39.2978C35.6588 39.4754 35.577 39.6405 35.458 39.7774C35.339 39.9142 35.1868 40.0182 35.016 40.0792C34.8492 40.1424 34.669 40.1615 34.4927 40.1347C34.3164 40.108 34.1499 40.0362 34.0094 39.9265L24.6819 32.7022C24.4869 32.5516 24.2423 32.4801 23.997 32.5019C23.7516 32.5237 23.5235 32.6372 23.358 32.8197L19.2514 37.3454L20.634 30.6342L34.7125 16.5537C34.8773 16.3883 34.9776 16.1694 34.9953 15.9366C35.013 15.7037 34.9468 15.4722 34.8088 15.2838C34.6707 15.0954 34.4699 14.9625 34.2425 14.9092C34.0151 14.8559 33.7762 14.8856 33.5688 14.993L13.2746 25.564L5.60379 22.8968C5.40103 22.8286 5.22428 22.6995 5.09773 22.527C4.97118 22.3545 4.90102 22.1472 4.89683 21.9333C4.88649 21.7171 4.94398 21.5031 5.06126 21.3212C5.17854 21.1393 5.34974 20.9987 5.55092 20.9189L40.6325 6.75424C40.8125 6.67876 41.0098 6.65454 41.2026 6.68427C41.3955 6.71399 41.5764 6.7965 41.7253 6.92266C41.8734 7.04166 41.9853 7.19973 42.0483 7.379C42.1112 7.55826 42.1228 7.75158 42.0817 7.93708L35.6955 39.2978Z" fill="white"/>
</svg>
