<svg width="47" height="47" viewBox="0 0 47 47" fill="none" xmlns="http://www.w3.org/2000/svg">
<path d="M0.136719 11.3828C0.136719 9.63867 1.33008 8.9502 2.79883 8.8584L9.6377 8.9043C10.0508 8.9043 10.418 9.17969 10.5557 9.59277C12.1162 14.6416 14.0439 17.7627 16.3389 21.2969C16.4766 21.5723 16.7061 21.71 16.9355 21.71C17.1191 21.71 17.3027 21.6182 17.4404 21.3887L17.5781 20.8838L17.624 12.9434C17.624 11.7959 17.0732 11.6123 15.7881 11.4287C15.2832 11.3369 14.9619 10.8779 14.9619 10.4189C14.9619 10.3271 14.9619 10.2354 15.0078 10.1436C15.6504 8.16992 17.6699 7.16016 20.5156 7.16016L23.0859 7.11426C25.1973 7.11426 27.125 8.03223 27.125 10.7402V21.1592C27.3086 21.2969 27.4922 21.3887 27.7217 21.3887C28.0889 21.3887 28.5479 21.1592 28.915 20.5625C31.3018 17.2119 34.0098 13.2188 34.377 11.1074C34.377 11.0156 34.4229 10.9697 34.4688 10.8779C34.9736 9.86816 36.2588 9.17969 36.8096 8.99609C36.9014 8.9502 37.0391 8.9043 37.2227 8.9043H44.3369L44.7959 8.9502C45.4844 8.9502 45.9893 9.40918 46.2188 9.82227C46.6318 10.4648 46.54 11.1533 46.5859 11.4287V11.75C45.8975 15.9268 41.124 20.6084 39.1045 23.6377C38.8291 24.0049 38.6914 24.3262 38.6914 24.6475C38.6914 24.9229 38.8291 25.1982 39.0586 25.4736L45.7598 33.9189C46.127 34.4238 46.3105 35.0205 46.3105 35.5254C46.3105 37.04 44.8877 37.9121 43.5107 38.0498L42.7305 38.0957H35.7539C35.6162 38.0957 35.5244 38.1416 35.3867 38.1416C34.6064 38.1416 33.9639 37.7285 33.5049 37.2695C32.0361 35.4795 30.6133 33.6436 29.1904 31.8535C28.915 31.4863 28.8232 31.4404 28.5479 31.2568C28.2266 32.5879 27.9512 33.9648 27.6299 35.3418L27.4922 36.1221C27.2627 36.9482 26.666 37.8203 25.5645 38.0498L24.9219 38.0957H20.4238C12.4834 38.0957 5.36914 26.8047 0.366211 12.7139C0.228516 12.3467 0.136719 11.8418 0.136719 11.3828ZM27.7217 23.2705C26.5283 23.2705 25.1973 22.582 25.1973 21.2969V10.7402C25.1973 9.50098 24.6465 9.04199 23.1318 9.04199L20.5156 9.13379C19.0469 9.13379 18.2207 9.36328 17.5322 9.82227C18.5879 10.3271 19.5518 11.0156 19.5518 12.9434V21.0215C19.4141 22.6279 18.083 23.6836 16.7979 23.6836C15.9258 23.6836 15.1455 23.1787 14.6865 22.3525C12.6211 19.2314 10.877 16.2939 9.3623 12.0713L8.94922 10.8779L2.84473 10.832C2.01855 10.832 2.11035 10.8779 2.11035 11.291C2.11035 11.5664 2.15625 11.9336 2.20215 12.1631L3.16602 14.7334C8.16895 27.6768 14.457 36.168 20.4238 36.168H25.0137C25.6562 36.168 25.6104 35.3877 25.748 34.9287L26.6201 30.8896C26.8037 30.4766 26.9414 30.1094 27.2627 29.7881C27.6299 29.4209 28.043 29.2832 28.4561 29.2832C29.3281 29.2832 30.1543 29.9717 30.7051 30.6143L34.6064 35.5713C34.9277 36.0762 35.2031 36.168 35.3867 36.168H42.96C43.6943 36.168 44.3369 35.9385 44.3369 35.4795C44.3369 35.3418 44.291 35.1582 44.1992 35.0205L37.5439 26.7129C36.9932 26.0244 36.7637 25.3359 36.7637 24.6475C36.7637 23.9131 37.0391 23.1787 37.498 22.5361C39.4258 19.6445 43.5566 15.5137 44.5205 12.1172L44.6582 11.5205C44.6123 11.291 44.6123 11.1074 44.5664 10.8779H37.3604C36.9014 11.0615 36.5342 11.3369 36.2588 11.7041L35.9834 12.5762C34.9277 15.5137 32.0361 19.5527 29.9707 22.3525C29.2822 22.9951 28.502 23.2705 27.7217 23.2705Z" fill="white"/>
</svg>
