<svg width="47" height="47" viewBox="0 0 47 47" fill="none" xmlns="http://www.w3.org/2000/svg">
<path d="M28.969 21.1007L21.7858 16.9647C21.3641 16.7219 20.8859 16.5943 20.3992 16.5946C19.9126 16.595 19.4346 16.7233 19.0132 16.9668C18.5918 17.2102 18.2418 17.5602 17.9984 17.9815C17.755 18.4029 17.6267 18.8809 17.6263 19.3676V27.6357C17.6204 28.6266 18.1492 29.5431 19.0089 30.0327C19.4304 30.2789 19.9096 30.409 20.3978 30.4097C20.886 30.4104 21.3656 30.2816 21.7878 30.0366L28.969 25.9006C29.3908 25.6581 29.7413 25.3086 29.985 24.8874C30.2287 24.4662 30.357 23.9882 30.357 23.5016C30.357 23.015 30.2287 22.537 29.985 22.1159C29.7413 21.6947 29.3908 21.3452 28.969 21.1027M27.9898 24.2008L20.8106 28.3387C20.6864 28.4125 20.5447 28.4515 20.4003 28.4515C20.2559 28.4515 20.1141 28.4125 19.99 28.3387C19.8655 28.2678 19.7622 28.1648 19.691 28.0405C19.6197 27.9162 19.583 27.775 19.5846 27.6318V19.3676C19.5837 19.225 19.6207 19.0846 19.692 18.9611C19.7632 18.8375 19.8661 18.7352 19.99 18.6645C20.1132 18.5891 20.2548 18.5491 20.3993 18.5491C20.5438 18.5491 20.6854 18.5891 20.8086 18.6645L27.9898 22.8025C28.1136 22.8725 28.2167 22.974 28.2884 23.0969C28.3601 23.2197 28.3979 23.3594 28.3979 23.5016C28.3979 23.6439 28.3601 23.7835 28.2884 23.9064C28.2167 24.0292 28.1136 24.1308 27.9898 24.2008ZM37.2096 7.83301H9.79297C8.2353 7.83456 6.74187 8.45403 5.64043 9.55547C4.539 10.6569 3.91952 12.1503 3.91797 13.708V33.2913C3.91952 34.849 4.539 36.3424 5.64043 37.4439C6.74187 38.5453 8.2353 39.1648 9.79297 39.1663H37.2096C38.7673 39.1648 40.2607 38.5453 41.3622 37.4439C42.4636 36.3424 43.0831 34.849 43.0846 33.2913V13.708C43.0831 12.1503 42.4636 10.6569 41.3622 9.55547C40.2607 8.45403 38.7673 7.83456 37.2096 7.83301ZM41.1263 33.2913C41.1247 34.3296 40.7116 35.3249 39.9774 36.0591C39.2432 36.7933 38.2479 37.2065 37.2096 37.208H9.79297C8.75468 37.2065 7.75936 36.7933 7.02518 36.0591C6.291 35.3249 5.87786 34.3296 5.8763 33.2913V13.708C5.87786 12.6697 6.291 11.6744 7.02518 10.9402C7.75936 10.206 8.75468 9.7929 9.79297 9.79134H37.2096C38.2479 9.7929 39.2432 10.206 39.9774 10.9402C40.7116 11.6744 41.1247 12.6697 41.1263 13.708V33.2913Z" fill="white"/>
</svg>
